HIERARCHY
ROOT SpineBase
{
  OFFSET 0.000000 0.000000 0.000000
  CHANNELS 6 Xposition Yposition Zposition Zrotation Xrotation Yrotation
  JOINT SpineMid
  {
    OFFSET 0.000000 28.070415 0.000000
    CHANNELS 3 Zrotation Xrotation Yrotation
    JOINT SpineShoulder
    {
      OFFSET -0.063793 20.818161 -0.756011
      CHANNELS 3 Zrotation Xrotation Yrotation
      JOINT Neck
      {
        OFFSET -0.043837 6.878897 -0.548675
        CHANNELS 3 Zrotation Xrotation Yrotation
        JOINT Head
        {
          OFFSET 3.450714 11.931598 -0.572725
          CHANNELS 3 Zrotation Xrotation Yrotation
          End Site
          {
            OFFSET 0 0 0
          }
        }
      }
      JOINT ShoulderLeft
      {
        OFFSET -13.708462 -3.069003 -6.929056
        CHANNELS 3 Zrotation Xrotation Yrotation
        JOINT ElbowLeft
        {
          OFFSET -7.113214 -18.807373 1.319039
          CHANNELS 3 Zrotation Xrotation Yrotation
          JOINT WristLeft
          {
            OFFSET 12.908656 -6.818753 -18.935318
            CHANNELS 3 Zrotation Xrotation Yrotation
            JOINT HandLeft
            {
              OFFSET 3.020430 0.900682 -4.374819
              CHANNELS 3 Zrotation Xrotation Yrotation
              JOINT HandTipLeft
              {
                OFFSET 2.600727 0.206335 -1.868664
                CHANNELS 3 Zrotation Xrotation Yrotation
                End Site
                {
                  OFFSET 0 0 0
                }
              }
              JOINT ThumbLeft
              {
                OFFSET 0.729574 2.420677 -2.536861
                CHANNELS 3 Zrotation Xrotation Yrotation
                End Site
                {
                  OFFSET 0 0 0
                }
              }
            }
          }
        }
      }
      JOINT ShoulderRight
      {
        OFFSET 14.836455 -4.745690 2.132924
        CHANNELS 3 Zrotation Xrotation Yrotation
        JOINT ElbowRight
        {
          OFFSET 4.287498 -20.301869 6.656030
          CHANNELS 3 Zrotation Xrotation Yrotation
          JOINT WristRight
          {
            OFFSET 9.745399 -5.903027 -13.474983
            CHANNELS 3 Zrotation Xrotation Yrotation
            JOINT HandRight
            {
              OFFSET 2.087880 0.442537 -8.938786
              CHANNELS 3 Zrotation Xrotation Yrotation
              JOINT HandTipRight
              {
                OFFSET 0.001240 1.009183 -5.710327
                CHANNELS 3 Zrotation Xrotation Yrotation
                End Site
                {
                  OFFSET 0 0 0
                }
              }
              JOINT ThumbRight
              {
                OFFSET -2.434552 2.450879 -3.407599
                CHANNELS 3 Zrotation Xrotation Yrotation
                End Site
                {
                  OFFSET 0 0 0
                }
              }
            }
          }
        }
      }
    }
  }
  JOINT HipLeft
  {
    OFFSET -5.584390 0.941296 -4.840017
    CHANNELS 3 Zrotation Xrotation Yrotation
    JOINT KneeLeft
    {
      OFFSET -6.904125 -27.575096 4.446226
      CHANNELS 3 Zrotation Xrotation Yrotation
      JOINT AnkleLeft
      {
        OFFSET -4.833627 -33.386454 8.419175
        CHANNELS 3 Zrotation Xrotation Yrotation
        JOINT FootLeft
        {
          OFFSET 2.603936 -3.978003 -11.937932
          CHANNELS 3 Zrotation Xrotation Yrotation
          End Site
          {
            OFFSET 0 0 0
          }
        }
      }
    }
  }
  JOINT HipRight
  {
    OFFSET 5.054860 0.188523 -1.855972
    CHANNELS 3 Zrotation Xrotation Yrotation
    JOINT KneeRight
    {
      OFFSET -1.477000 -26.096343 7.434237
      CHANNELS 3 Zrotation Xrotation Yrotation
      JOINT AnkleRight
      {
        OFFSET -5.755051 -36.102735 11.816559
        CHANNELS 3 Zrotation Xrotation Yrotation
        JOINT FootRight
        {
          OFFSET 2.557283 -4.224283 -10.225042
          CHANNELS 3 Zrotation Xrotation Yrotation
          End Site
          {
            OFFSET 0 0 0
          }
        }
      }
    }
  }
}
MOTION
Frames: 15
Frame Time: 0.033333
30.966128 67.762010 365.832322 2.821228 -1.123942 -21.815165 -0.162089 0.156197 21.935171 -0.062940 -0.068650 0.112045 -6.494289 0.838480 -0.255471 0.000000 0.000000 0.000000 44.476428 46.479036 -43.332068 38.841735 7.402778 -11.597667 -15.752737 -4.536915 -12.456039 19.344813 -22.190374 14.270128 0.000000 0.000000 0.000000 0.000000 0.000000 0.000000 -1.853745 1.318413 0.133602 -1.548266 -3.191481 -3.685310 -0.204600 1.075424 -3.303043 -4.331547 -8.371984 -16.803837 0.000000 0.000000 0.000000 0.000000 0.000000 0.000000 -4.352094 -0.369752 21.582412 0.789689 -2.088880 0.381751 1.712479 -4.117454 -8.846577 0.000000 0.000000 0.000000 -3.036695 -0.005861 21.842687 -0.000000 0.000000 0.000000 4.440018 6.255715 -6.227561 0.000000 0.000000 0.000000
30.977558 67.798746 365.828030 2.800973 -1.134437 -21.782798 -0.171485 0.162350 21.901792 -0.076396 -0.061302 0.109767 -6.141854 1.046942 -0.298708 0.000000 0.000000 0.000000 45.281576 46.780514 -44.158683 38.902687 7.376838 -11.243967 -15.249587 -4.897172 -13.583010 18.666313 -21.476106 16.653010 0.000000 0.000000 0.000000 0.000000 0.000000 0.000000 -1.654630 1.554490 0.234352 -1.408575 -3.126045 -3.941345 -0.758271 -0.438045 -3.059885 -3.411197 -5.831902 -14.384298 0.000000 0.000000 0.000000 0.000000 0.000000 0.000000 -4.146153 -0.413795 21.608216 0.547907 -1.950057 0.299914 2.246413 -2.335323 -8.533909 0.000000 0.000000 0.000000 -3.021788 0.013111 21.810879 -0.000000 0.000000 0.000000 3.332247 4.132622 -5.142061 0.000000 0.000000 0.000000
31.002558 67.761645 365.819972 2.795880 -1.127992 -21.592960 -0.185347 0.159209 21.711170 -0.095168 -0.047869 0.107344 -5.843584 1.210055 -0.338296 0.000000 0.000000 0.000000 46.657364 47.094112 -45.403934 38.852095 7.170762 -10.831504 -14.806055 -4.599285 -14.204460 16.377925 -22.021493 21.595389 0.000000 0.000000 0.000000 0.000000 0.000000 0.000000 -1.386993 1.596828 0.319796 -1.299927 -2.752862 -4.024284 -1.271696 -1.831085 -2.918066 -2.992230 -5.254502 -13.313070 0.000000 0.000000 0.000000 0.000000 0.000000 0.000000 -3.970635 -0.589089 21.490496 0.313331 -1.638419 0.179113 2.886127 -0.042274 -7.884332 0.000000 0.000000 0.000000 -3.014621 0.019011 21.620988 -0.000000 0.000000 0.000000 2.635445 1.729710 -5.111396 0.000000 0.000000 0.000000
31.042277 67.691107 365.796003 2.810406 -1.091658 -21.448761 -0.199123 0.143887 21.566488 -0.114245 -0.032218 0.105587 -5.485228 1.402823 -0.392464 0.000000 0.000000 0.000000 48.142624 47.397683 -46.758219 38.819805 6.954175 -10.402425 -14.538135 -4.640677 -14.784997 15.051732 -22.913837 24.589605 0.000000 0.000000 0.000000 0.000000 0.000000 0.000000 -1.101410 1.429081 0.376404 -1.070576 -2.469610 -4.919715 -1.705535 -3.393265 1.023749 -3.326552 -4.873895 -16.145679 0.000000 0.000000 0.000000 0.000000 0.000000 0.000000 -3.782825 -1.024079 21.458660 0.332639 -1.120115 0.068053 3.345065 2.654663 -7.095845 0.000000 0.000000 0.000000 -3.014795 -0.012495 21.475212 -0.000000 0.000000 0.000000 1.100580 -7.334994 -8.261595 0.000000 0.000000 0.000000
31.094572 67.616099 365.757903 2.841551 -1.032875 -21.223849 -0.207975 0.120614 21.341508 -0.142160 -0.021817 0.104089 -5.157001 1.579628 -0.447113 0.000000 0.000000 0.000000 49.525444 47.754512 -48.139525 39.112594 6.512429 -10.092230 -14.433341 -3.655830 -14.710926 15.045774 -25.355978 25.036480 0.000000 0.000000 0.000000 0.000000 0.000000 0.000000 -0.815648 1.085964 0.403243 -1.154658 -1.841729 -4.764134 -2.045401 -4.849350 1.191795 -2.720374 -2.184964 -15.395799 0.000000 0.000000 0.000000 0.000000 0.000000 0.000000 -4.293754 -0.840937 21.067335 1.122297 -2.025922 0.403991 2.490075 1.016467 -7.694306 0.000000 0.000000 0.000000 -3.022569 -0.066673 21.247708 -0.000000 0.000000 0.000000 -1.056451 -16.391989 -11.706776 0.000000 0.000000 0.000000
31.147760 67.546239 365.712517 2.878636 -0.962886 -20.939655 -0.216547 0.093984 21.057242 -0.169678 -0.013731 0.102871 -4.995973 1.670708 -0.485694 0.000000 0.000000 0.000000 49.944534 47.828643 -48.529323 39.352186 6.484476 -10.121793 -14.519626 -3.024196 -14.335229 15.187295 -28.259144 24.404718 0.000000 0.000000 0.000000 0.000000 0.000000 0.000000 -0.661960 0.914649 0.426419 -1.088174 -1.300947 -4.504009 -2.288109 -5.612685 1.105183 -1.927016 -1.410844 -12.773863 0.000000 0.000000 0.000000 0.000000 0.000000 0.000000 -4.500678 -0.940205 20.737651 1.768237 -2.283746 0.595585 2.014209 1.274339 -7.716349 0.000000 0.000000 0.000000 -3.032486 -0.130229 20.960402 -0.000000 0.000000 0.000000 -3.196357 -23.234671 -14.708343 0.000000 0.000000 0.000000
31.210627 67.457950 365.673054 2.909312 -0.897758 -20.819941 -0.230964 0.069758 20.937030 -0.194585 -0.001367 0.101303 -4.537075 1.867339 -0.546812 0.000000 0.000000 0.000000 51.696497 48.231129 -50.277643 39.478552 5.869155 -9.534661 -14.184910 -2.039601 -14.660680 15.647374 -31.085583 24.494844 0.000000 0.000000 0.000000 0.000000 0.000000 0.000000 -0.527302 0.747256 0.443920 -0.943993 -0.668556 -4.182933 -2.646265 -6.754042 0.910126 -1.361721 -0.456853 -11.192136 0.000000 0.000000 0.000000 0.000000 0.000000 0.000000 -4.704173 -1.099358 20.580093 2.405129 -2.513009 0.773956 1.582974 1.548410 -7.777781 0.000000 0.000000 0.000000 -3.148489 0.901425 20.859872 -0.860918 -2.045246 -0.070726 -3.608540 -25.087588 -16.069859 0.000000 0.000000 0.000000
31.272708 67.363858 365.627011 2.923955 -0.826317 -20.569492 -0.243655 0.050550 20.685216 -0.212984 0.014053 0.099608 -3.873802 2.064138 -0.608636 0.000000 0.000000 0.000000 53.355790 48.654126 -52.024482 39.829397 5.114130 -8.994569 -13.923603 -1.279028 -15.213000 13.885781 -32.992455 29.073954 0.000000 0.000000 0.000000 0.000000 0.000000 0.000000 -0.452603 0.695940 0.466515 -0.926275 -0.934224 -4.785618 -2.259456 -5.594296 3.707056 -2.613800 -2.499236 -15.865668 0.000000 0.000000 0.000000 0.000000 0.000000 0.000000 -4.871251 -1.262288 20.299436 2.953457 -2.670003 0.917620 1.229997 1.770558 -7.834430 0.000000 0.000000 0.000000 -3.452436 0.848452 20.516163 -0.403594 -2.344643 0.106216 -3.045380 -22.990555 -15.380145 0.000000 0.000000 0.000000
31.325960 67.298335 365.555109 2.920309 -0.736792 -20.410467 -0.246039 0.037334 20.523898 -0.218946 0.024388 0.098658 -3.144952 2.325729 -0.694298 0.000000 0.000000 0.000000 54.651203 49.067409 -53.526529 40.429214 4.363550 -8.578867 -13.949113 -1.080738 -15.794032 13.850188 -33.802972 30.681336 0.000000 0.000000 0.000000 0.000000 0.000000 0.000000 -0.437725 0.726560 0.490816 -1.013061 -1.383826 -5.203160 -1.840863 -4.130814 5.634626 -3.258359 -2.878871 -18.386885 0.000000 0.000000 0.000000 0.000000 0.000000 0.000000 -4.954371 -1.471916 20.127906 3.305761 -2.653400 0.980804 1.457671 4.691855 -6.773268 0.000000 0.000000 0.000000 -3.364946 1.279828 20.391760 -0.723237 -3.082151 0.070821 -0.844844 -16.421616 -12.817828 0.000000 0.000000 0.000000
31.367982 67.291673 365.479557 2.903350 -0.653828 -20.366833 -0.238040 0.035092 20.477862 -0.213573 0.028139 0.098674 -2.410442 2.691617 -0.811382 0.000000 0.000000 0.000000 55.032279 49.362575 -54.193841 41.313957 3.371263 -8.598765 -15.775612 0.106222 -13.399959 14.517319 -30.846128 28.199543 0.000000 0.000000 0.000000 0.000000 0.000000 0.000000 -0.429841 0.841587 0.530913 -1.206878 -2.217143 -5.977239 -1.334318 -1.754867 7.738177 -3.551877 -3.983332 -18.835146 0.000000 0.000000 0.000000 0.000000 0.000000 0.000000 -4.948477 -1.693233 20.093200 3.435653 -2.550721 0.972642 0.874397 1.119749 -8.213317 0.000000 0.000000 0.000000 -3.597197 0.816620 20.245317 -0.183002 -2.761206 0.219057 1.385130 -7.394415 -9.557267 0.000000 0.000000 0.000000
31.372517 67.313019 365.407436 2.850625 -0.584883 -20.384120 -0.210353 0.044443 20.492298 -0.193829 0.029382 0.099236 -1.789765 3.062718 -0.932052 0.000000 0.000000 0.000000 54.713086 49.515605 -54.134039 41.905534 3.084111 -8.708550 -16.711122 0.022136 -12.470822 14.962876 -25.893640 27.452680 0.000000 0.000000 0.000000 0.000000 0.000000 0.000000 -0.389913 0.937246 0.575182 -1.553088 -3.163769 -6.791763 -0.850768 0.587203 9.859187 -4.140159 -5.156250 -20.377810 0.000000 0.000000 0.000000 0.000000 0.000000 0.000000 -4.810922 -1.837727 20.137829 3.321837 -2.367502 0.902126 0.389929 -2.235332 -9.532710 0.000000 0.000000 0.000000 -3.456286 0.518145 20.265570 -0.174050 -2.420818 0.194970 3.224251 2.040239 -6.387626 0.000000 0.000000 0.000000
31.393895 67.332573 365.319290 2.826775 -0.497394 -20.441721 -0.185446 0.040277 20.547863 -0.175236 0.018260 0.100870 -1.410864 3.357912 -1.036045 0.000000 0.000000 0.000000 55.524272 49.725670 -55.063070 41.955598 2.802663 -8.217481 -15.912309 -0.711419 -14.258586 14.144195 -27.321596 30.064183 0.000000 0.000000 0.000000 0.000000 0.000000 0.000000 -0.392045 0.920039 0.588154 -1.911129 -3.888679 -7.330339 -0.500085 2.319044 10.715935 -4.265915 -4.558161 -21.339509 0.000000 0.000000 0.000000 0.000000 0.000000 0.000000 -4.664256 -2.109802 20.244013 3.068719 -1.971978 0.749453 0.103428 -5.052879 -10.539933 0.000000 0.000000 0.000000 -3.031358 0.842117 20.445198 -0.906262 -2.760020 -0.009120 3.886929 5.583884 -5.047055 0.000000 0.000000 0.000000
31.398802 67.345623 365.231793 2.785231 -0.405107 -20.512740 -0.157294 0.036764 20.616233 -0.160714 0.014575 0.101488 -1.308785 3.419970 -1.076784 0.000000 0.000000 0.000000 56.000776 49.610159 -55.318169 41.874506 2.323915 -8.237171 -16.895051 -0.937557 -13.117851 14.045554 -26.907366 29.194342 0.000000 0.000000 0.000000 0.000000 0.000000 0.000000 -0.408636 0.847067 0.583736 -2.201363 -4.430096 -7.672401 -0.193792 3.766979 11.483631 -4.789089 -4.616423 -23.566365 0.000000 0.000000 0.000000 0.000000 0.000000 0.000000 -4.546780 -2.297727 20.338051 2.659804 -1.619161 0.576001 0.155540 -6.994480 -11.130973 0.000000 0.000000 0.000000 -2.496074 1.133445 20.661649 -1.768193 -3.010668 -0.264440 3.654926 8.525345 -2.197908 0.000000 0.000000 0.000000
31.407590 67.383681 365.150293 2.756873 -0.319713 -20.640676 -0.133373 0.032231 20.742121 -0.148193 0.011962 0.102327 -1.450354 3.406952 -1.096797 0.000000 0.000000 0.000000 55.666642 49.317278 -54.708370 41.871507 1.767680 -8.723046 -18.538737 -1.459477 -11.141469 15.581899 -22.792062 25.373692 0.000000 0.000000 0.000000 0.000000 0.000000 0.000000 -0.429120 0.670727 0.558593 -2.543449 -4.776621 -7.708406 0.103829 4.387322 11.432706 -3.671682 -1.801383 -21.372696 0.000000 0.000000 0.000000 0.000000 0.000000 0.000000 -4.454145 -2.442196 20.478648 2.407888 -1.438803 0.476853 0.279945 -7.689571 -11.309779 0.000000 0.000000 0.000000 -1.941270 1.467769 20.945768 -2.618035 -3.256460 -0.518466 4.048329 3.409901 -5.615504 0.000000 0.000000 0.000000
31.416514 67.443692 365.074979 2.747092 -0.237369 -20.767937 -0.112337 0.027788 20.868058 -0.140349 0.010178 0.103486 -1.961289 3.135230 -1.045901 0.000000 0.000000 0.000000 54.644759 48.921823 -53.445402 41.893605 1.235269 -9.472836 -20.523608 -1.657177 -8.305799 17.047078 -22.931863 20.460957 0.000000 0.000000 0.000000 0.000000 0.000000 0.000000 -0.605215 0.264790 0.441228 -2.583667 -4.578102 -7.340098 0.327962 5.129579 10.415117 -3.701078 -2.728169 -20.017616 0.000000 0.000000 0.000000 0.000000 0.000000 0.000000 -4.359748 -2.534061 20.614855 2.315398 -1.441287 0.454970 0.452876 -7.044021 -10.991908 0.000000 0.000000 0.000000 -1.756474 0.958581 21.094891 -2.674158 -2.619600 -0.577847 4.238660 0.283477 -7.904875 0.000000 0.000000 0.000000
